<svg xmlns="http://www.w3.org/2000/svg" viewBox="0 0 667.95 971.63"><defs><style>.cls-1{fill:#f5f5f5;}</style></defs><g id="Capa_2" data-name="Capa 2"><g id="Capa_2-2" data-name="Capa 2"><path class="cls-1" d="M340.32,34.09S118.08,333.3,40.4,550.51"/><path class="cls-1" d="M74.23,510.79,8.91,572.23C41.6,480.83,64.61,417.07,151,270.83,212.19,167.24,333.86.75,334.42,0V81.38C332.22,84.35,157.47,306.41,74.23,510.79Z"/><path class="cls-1" d="M342.87,41.61s207.9,291.69,285.58,508.9"/><path class="cls-1" d="M594.62,510.79l65.32,61.44c-32.69-91.4-55.71-155.16-142.09-301.4C456.66,167.24,335,.75,334.42,0V81.38C336.63,84.35,511.37,306.41,594.62,510.79Z"/><path class="cls-1" d="M334.26,971.63a321,321,0,0,1-130.34-27.45,332.7,332.7,0,0,1-106.26-74.7C34.68,803.8,0,716.52,0,623.71v-8L223.91,438a58.82,58.82,0,0,1,79.34,5.35L516.57,665.51a26,26,0,0,0,32.08,4.39l75-44.35L462.94,451A26,26,0,0,0,429.38,447l-49.85,33-18.2-27.53,49.85-33a58.85,58.85,0,0,1,76,9.25L649.7,605.07l1.19,1.44c8,9.67,18,21.7,17,39.12-5.26,88.14-42.22,170.18-104.07,231C501.52,937.89,420,971.63,334.26,971.63Zm-301.17-340c4,170,137.58,307,301.17,307,154.12,0,283.12-122.18,299.51-280.7l-68.33,40.38a58.87,58.87,0,0,1-72.67-9.95L279.45,466.23a26,26,0,0,0-35-2.36Z"/><path class="cls-1" d="M103.68,704.3a59.09,59.09,0,0,1-39.77-15.25L5.41,635.93,27.59,611.5l58.5,53.12a26.22,26.22,0,0,0,32.72,1.89l150.3-107.69,19.22,26.82L138,693.34A58.93,58.93,0,0,1,103.68,704.3Z"/></g></g></svg>