<svg id="wave" style="transform:rotate(180deg); transition: 0.3s" viewBox="0 0 1440 100" version="1.1" xmlns="http://www.w3.org/2000/svg"><defs><linearGradient id="sw-gradient-0" x1="0" x2="0" y1="1" y2="0"><stop stop-color="rgba(245, 245, 245, 1)" offset="0%"></stop><stop stop-color="rgba(245, 245, 245, 1)" offset="100%"></stop></linearGradient></defs><path style="transform:translate(0, 0px); opacity:1" fill="url(#sw-gradient-0)" d="M0,50L18.5,55C36.9,60,74,70,111,73.3C147.7,77,185,73,222,66.7C258.5,60,295,50,332,48.3C369.2,47,406,53,443,58.3C480,63,517,67,554,60C590.8,53,628,37,665,33.3C701.5,30,738,40,775,41.7C812.3,43,849,37,886,35C923.1,33,960,37,997,41.7C1033.8,47,1071,53,1108,56.7C1144.6,60,1182,60,1218,65C1255.4,70,1292,80,1329,70C1366.2,60,1403,30,1440,23.3C1476.9,17,1514,33,1551,36.7C1587.7,40,1625,30,1662,26.7C1698.5,23,1735,27,1772,28.3C1809.2,30,1846,30,1883,40C1920,50,1957,70,1994,68.3C2030.8,67,2068,43,2105,30C2141.5,17,2178,13,2215,11.7C2252.3,10,2289,10,2326,18.3C2363.1,27,2400,43,2437,46.7C2473.8,50,2511,40,2548,40C2584.6,40,2622,50,2640,55L2658.5,60L2658.5,100L2640,100C2621.5,100,2585,100,2548,100C2510.8,100,2474,100,2437,100C2400,100,2363,100,2326,100C2289.2,100,2252,100,2215,100C2178.5,100,2142,100,2105,100C2067.7,100,2031,100,1994,100C1956.9,100,1920,100,1883,100C1846.2,100,1809,100,1772,100C1735.4,100,1698,100,1662,100C1624.6,100,1588,100,1551,100C1513.8,100,1477,100,1440,100C1403.1,100,1366,100,1329,100C1292.3,100,1255,100,1218,100C1181.5,100,1145,100,1108,100C1070.8,100,1034,100,997,100C960,100,923,100,886,100C849.2,100,812,100,775,100C738.5,100,702,100,665,100C627.7,100,591,100,554,100C516.9,100,480,100,443,100C406.2,100,369,100,332,100C295.4,100,258,100,222,100C184.6,100,148,100,111,100C73.8,100,37,100,18,100L0,100Z"></path></svg>