<svg id="wave" style="transform:rotate(0deg); transition: 0.3s" viewBox="0 0 1440 100" version="1.1" xmlns="http://www.w3.org/2000/svg"><defs><linearGradient id="sw-gradient-0" x1="0" x2="0" y1="1" y2="0"><stop stop-color="rgba(245, 245, 245, 1)" offset="0%"></stop><stop stop-color="rgba(245, 245, 245, 1)" offset="100%"></stop></linearGradient></defs><path style="transform:translate(0, 0px); opacity:1" fill="url(#sw-gradient-0)" d="M0,40L30,35C60,30,120,20,180,28.3C240,37,300,63,360,66.7C420,70,480,50,540,46.7C600,43,660,57,720,56.7C780,57,840,43,900,46.7C960,50,1020,70,1080,65C1140,60,1200,30,1260,20C1320,10,1380,20,1440,33.3C1500,47,1560,63,1620,61.7C1680,60,1740,40,1800,31.7C1860,23,1920,27,1980,31.7C2040,37,2100,43,2160,43.3C2220,43,2280,37,2340,28.3C2400,20,2460,10,2520,8.3C2580,7,2640,13,2700,13.3C2760,13,2820,7,2880,6.7C2940,7,3000,13,3060,23.3C3120,33,3180,47,3240,43.3C3300,40,3360,20,3420,13.3C3480,7,3540,13,3600,15C3660,17,3720,13,3780,18.3C3840,23,3900,37,3960,48.3C4020,60,4080,70,4140,63.3C4200,57,4260,33,4290,21.7L4320,10L4320,100L4290,100C4260,100,4200,100,4140,100C4080,100,4020,100,3960,100C3900,100,3840,100,3780,100C3720,100,3660,100,3600,100C3540,100,3480,100,3420,100C3360,100,3300,100,3240,100C3180,100,3120,100,3060,100C3000,100,2940,100,2880,100C2820,100,2760,100,2700,100C2640,100,2580,100,2520,100C2460,100,2400,100,2340,100C2280,100,2220,100,2160,100C2100,100,2040,100,1980,100C1920,100,1860,100,1800,100C1740,100,1680,100,1620,100C1560,100,1500,100,1440,100C1380,100,1320,100,1260,100C1200,100,1140,100,1080,100C1020,100,960,100,900,100C840,100,780,100,720,100C660,100,600,100,540,100C480,100,420,100,360,100C300,100,240,100,180,100C120,100,60,100,30,100L0,100Z"></path></svg>